<svg xmlns="http://www.w3.org/2000/svg" width="1270" height="419" viewBox="0 0 1270 419" version="1.1"><path d="M 798.584 167.908 C 797.634 168.957, 794.527 170.831, 791.679 172.074 C 783.961 175.440, 773.174 175.748, 759.036 173.007 C 743.903 170.073, 729.330 170.397, 723.842 173.788 C 720.761 175.693, 719.797 175.865, 717.660 174.891 C 716.267 174.256, 714.505 173.976, 713.743 174.268 C 712.447 174.766, 706.627 187.902, 702.454 199.750 C 701.437 202.637, 700.274 205, 699.871 205 C 699.467 205, 698.197 203.682, 697.050 202.071 C 692.463 195.628, 683.557 193.109, 677.125 196.435 C 673.919 198.093, 667.399 205.030, 665.849 208.433 C 665.193 209.872, 664.160 210.593, 663.138 210.326 C 661.958 210.017, 660.418 211.752, 657.740 216.409 C 649.508 230.722, 627.165 257.427, 626.315 253.970 C 626.108 253.129, 629.557 243.545, 633.980 232.674 C 640.897 215.671, 641.859 212.600, 640.861 210.704 C 640.223 209.492, 639.205 208.169, 638.600 207.765 C 636.818 206.575, 630.863 206.912, 625.636 208.497 C 620.129 210.168, 620.359 210.813, 623.046 201.257 C 624.067 197.629, 623.997 196.645, 622.567 194.463 C 620.723 191.647, 616.731 189.748, 613.618 190.205 C 610.956 190.595, 604.595 207.878, 605.536 212.163 C 606.417 216.173, 610.700 219.254, 614.739 218.782 C 616.532 218.573, 618 218.618, 618 218.882 C 618 219.146, 615.453 222.688, 612.339 226.753 C 606.140 234.846, 601.992 238.472, 597.711 239.540 L 594.922 240.237 596.453 236.368 C 599.208 229.409, 602 216.790, 602 211.300 C 602 204.791, 599.511 199.471, 594.850 196.018 C 592.182 194.041, 590.075 193.472, 584.500 193.222 C 578.200 192.940, 576.977 193.214, 572.263 195.967 C 557.037 204.859, 543.436 237.198, 548.026 253.592 C 552.643 270.084, 574.838 272.535, 585.018 257.678 C 586.919 254.905, 588.304 254.032, 591.584 253.540 C 599.875 252.296, 609.405 243.788, 617.389 230.500 C 619.372 227.200, 620.996 224.741, 620.997 225.035 C 620.999 225.329, 618.750 231.750, 616 239.303 C 610.275 255.028, 609.906 258.547, 613.533 262.857 C 617.235 267.256, 621.986 268.575, 626.469 266.448 C 631.553 264.035, 639.186 255.290, 648.180 241.572 C 652.481 235.012, 656 229.838, 656 230.075 C 656 230.312, 655.153 233.469, 654.117 237.091 C 650.896 248.355, 650.518 255.121, 652.818 260.322 C 655.023 265.305, 656.831 266.629, 662.714 267.570 C 667.922 268.403, 673.384 265.643, 678.878 259.401 C 682.751 255.001, 683 254.873, 683 257.282 C 683 260.894, 687.449 265.755, 692.002 267.119 C 695.494 268.165, 696.279 268.027, 700.330 265.652 C 707.621 261.380, 721.319 242.514, 731.148 223.209 C 738.808 208.164, 737.222 204.849, 728.832 218.369 C 719.384 233.594, 700.244 256.512, 698.442 254.756 C 698.023 254.347, 698.238 252.097, 698.921 249.756 C 701.472 241.015, 719.548 196.745, 720.761 196.271 C 721.455 195.999, 723.507 194.293, 725.322 192.478 C 728.959 188.841, 733.094 187.481, 743.250 186.581 C 748.554 186.111, 750 186.273, 750 187.336 C 750 188.081, 746.598 198.998, 742.440 211.595 C 731.548 244.596, 723.756 259.997, 715.478 264.881 C 711.042 267.498, 711.041 269.950, 715.473 273.842 C 721.759 279.362, 730.362 279.827, 735.575 274.930 C 739.050 271.665, 746.157 257.265, 751.087 243.500 C 753.451 236.900, 755.498 231.338, 755.636 231.139 C 756.121 230.445, 769.656 230.996, 774.547 231.910 C 778.105 232.575, 779.693 232.506, 780.227 231.666 C 781.582 229.537, 781.026 225.254, 779.085 222.861 C 777.306 220.668, 776.522 220.511, 768.085 220.660 C 763.088 220.747, 759.008 220.522, 759.018 220.160 C 759.028 219.797, 761.230 212.525, 763.912 204 L 768.789 188.500 779.687 187.969 C 788.921 187.519, 791.454 187.013, 796.269 184.657 C 802.963 181.382, 806 177.927, 806 173.588 C 806 170.121, 803.609 166, 801.598 166 C 800.890 166, 799.533 166.858, 798.584 167.908 M 262.500 169.393 C 255.053 172.656, 250.164 181.373, 251.411 189.167 C 251.741 191.230, 259.881 209.699, 269.500 230.209 C 288.341 270.381, 289.893 272.817, 298.040 275.011 C 303.958 276.604, 311.188 274.751, 315.337 270.577 C 317.300 268.602, 321.693 260.482, 326.919 249.167 C 331.550 239.142, 335.667 231.290, 336.068 231.719 C 336.469 232.149, 340.432 240.335, 344.875 249.910 C 349.317 259.486, 353.976 268.416, 355.226 269.755 C 362.178 277.199, 374.401 277.532, 381.464 270.469 C 383.545 268.388, 390.304 255.169, 401.935 230.431 C 416.352 199.769, 419.377 192.553, 419.758 187.921 C 420.756 175.761, 411.245 166.735, 399.175 168.390 C 389.661 169.693, 387.285 173.027, 372.003 206.500 L 368.808 213.500 367.179 210 C 353.444 180.492, 350.092 174.336, 346.348 171.750 C 338.553 166.365, 328.312 167.464, 322.282 174.331 C 320.736 176.092, 315.935 185.175, 311.612 194.516 C 307.289 203.857, 303.436 211.850, 303.048 212.278 C 302.661 212.706, 298.858 205.506, 294.597 196.278 C 290.336 187.050, 285.729 177.777, 284.359 175.671 C 280.078 169.092, 269.875 166.162, 262.500 169.393 M 463.365 171.089 C 458.290 172.560, 450.831 178.132, 446.838 183.437 C 437.242 196.183, 438.265 213.466, 449.245 224.122 C 452.898 227.667, 456.603 229.731, 457.572 228.761 C 457.804 228.529, 457.264 226.196, 456.372 223.577 C 454.103 216.919, 454.893 206.098, 458.169 198.945 C 459.541 195.950, 463.021 191.025, 465.901 188 L 471.139 182.500 470.593 188 C 470.292 191.025, 469.090 202.725, 467.921 214 C 466.751 225.275, 465.728 241.328, 465.647 249.673 L 465.500 264.845 468.500 268.016 C 472.517 272.262, 480.284 276.102, 485.297 276.321 L 489.379 276.500 494.398 267 L 499.416 257.500 500.346 261.415 C 500.931 263.873, 502.833 266.886, 505.462 269.515 C 509.728 273.780, 517.790 277.678, 520.331 276.703 C 522.154 276.004, 525.869 269.335, 532.562 254.745 C 543.046 231.893, 560 187.642, 560 183.131 C 560 178, 551.624 171, 545.485 171 L 542.439 171 541.226 180.750 C 539.210 196.957, 534.021 212.071, 520.441 241.300 C 511.337 260.895, 510.478 261.086, 510.536 243.500 C 510.572 232.569, 510.614 232.377, 517.286 212.983 C 524.258 192.717, 524.992 188.861, 522.542 185.364 C 520.768 182.831, 511.661 178.763, 508.722 179.190 C 506.871 179.459, 506.438 180.549, 505.416 187.500 C 502.060 210.323, 485.286 260.398, 481.500 258.896 C 480.006 258.304, 480.729 238.260, 483.337 208 C 484.593 193.425, 485.345 180.375, 485.007 179 C 484.645 177.523, 482.424 175.169, 479.584 173.250 C 474.502 169.816, 469.881 169.200, 463.365 171.089 M 259.882 176.882 C 256.405 180.360, 256 181.288, 256 185.778 C 256 190.173, 258.072 195.217, 272.784 226.646 C 292.710 269.215, 291.333 266.623, 295.314 269.050 C 301.510 272.828, 310.535 270.692, 314.601 264.486 C 318.472 258.578, 317.647 256.006, 299.215 216.500 C 279.356 173.934, 278.715 173, 269.397 173 C 264.188 173, 263.473 173.292, 259.882 176.882 M 326.239 176.750 C 324.121 179.058, 319.382 187.883, 313.913 199.704 C 306.019 216.763, 304.378 222, 306.926 222 C 307.317 222, 312.042 212.576, 317.425 201.059 C 322.808 189.541, 328.112 179.303, 329.211 178.309 C 332.314 175.501, 339.343 175.870, 342.382 179 C 345.746 182.465, 378.092 251.502, 378.715 256.546 C 379.127 259.886, 378.754 261.139, 376.580 263.723 C 373.193 267.748, 369.177 268.652, 364.513 266.439 C 360.605 264.585, 360.976 265.260, 344.927 230.773 C 340.505 221.273, 336.542 213.151, 336.119 212.725 C 335.695 212.298, 333.497 215.898, 331.232 220.725 C 328.968 225.551, 325.259 233.457, 322.989 238.294 C 319.696 245.311, 319.037 247.610, 319.724 249.671 C 320.493 251.980, 321.374 250.546, 328.011 236.179 C 332.095 227.337, 335.607 220.274, 335.816 220.483 C 336.025 220.692, 340.991 231.114, 346.851 243.644 C 355.811 262.800, 358.047 266.789, 360.901 268.712 C 364.934 271.430, 370.713 271.704, 375.555 269.407 C 379.801 267.392, 383.484 260.329, 382.710 255.686 C 382.186 252.545, 350.656 184.416, 346.955 178.426 C 344.518 174.484, 341.193 173, 334.793 173 C 330.164 173, 329.355 173.354, 326.239 176.750 M 393.014 175.750 C 391.035 177.554, 386.772 185.383, 380.626 198.500 C 372.942 214.901, 371.442 218.858, 372.292 220.491 C 373.419 222.655, 372.873 223.651, 387.820 192.156 C 393.494 180.201, 394.502 178.688, 397.674 177.363 C 399.743 176.498, 402.396 176.148, 404.077 176.517 C 407.907 177.358, 412 182.358, 412 186.196 C 412 188.003, 406.521 201.016, 398.510 218.235 C 388.058 240.700, 385.164 247.806, 385.660 249.783 C 386.259 252.169, 386.478 251.983, 389.038 246.917 C 390.543 243.938, 397.277 229.649, 404.002 215.165 C 415.156 191.139, 416.172 188.475, 415.582 184.788 C 414.347 177.067, 409.426 173.017, 401.266 173.007 C 396.949 173.001, 395.503 173.482, 393.014 175.750 M 810.216 175.250 C 808.128 177.784, 791.213 222.541, 782.195 249.387 C 779.943 256.093, 780.502 259.957, 784.273 263.727 C 790.430 269.884, 798.035 267.694, 806.476 257.333 C 809.239 253.941, 811.781 251.129, 812.125 251.083 C 812.469 251.037, 812.999 252.238, 813.303 253.750 C 814.899 261.693, 822.545 267.296, 831.870 267.358 C 838.975 267.405, 844.516 264.648, 849.470 258.602 C 852.259 255.198, 854.018 254.004, 856.978 253.504 C 859.104 253.144, 862.880 251.559, 865.369 249.981 L 869.894 247.111 870.577 251.806 C 871.841 260.498, 875.311 265.468, 881.226 267.061 C 884.552 267.957, 885.793 267.795, 889.556 265.973 C 891.988 264.796, 895.705 261.870, 897.816 259.471 L 901.655 255.110 903.792 259.509 C 906.539 265.163, 909.969 267.385, 915.952 267.385 C 926.892 267.385, 939.223 254.828, 948.879 233.855 C 953.433 223.962, 961 202.304, 961 199.161 C 961 196.592, 957.698 195, 952.369 195 C 946.525 195, 945.329 196.305, 942.507 205.753 C 939.139 217.033, 933.504 231.911, 929.763 239.405 C 925.569 247.805, 919.867 256.121, 918.589 255.701 C 917.990 255.504, 917.362 252.963, 917.194 250.055 C 916.704 241.607, 921.438 225.360, 931.703 200.249 C 932.434 198.462, 924.362 195.048, 919.343 195.022 L 915.187 195 912.173 202.250 C 910.515 206.238, 907.537 215.125, 905.555 222 C 901.586 235.764, 896.719 246.409, 891.650 252.416 C 886.901 258.042, 885.586 256.740, 886.290 247.109 C 886.943 238.170, 890.372 225.935, 896.505 210.660 C 898.931 204.618, 900.710 199.339, 900.457 198.930 C 899.663 197.646, 890.794 195, 887.283 195 C 884.113 195, 883.734 195.392, 880.620 201.890 C 877.839 207.693, 873.743 221.360, 871.530 232.222 C 870.954 235.052, 864.864 240, 861.958 240 C 860.624 240, 860.836 238.643, 863.325 231.250 C 865.399 225.090, 866.409 219.836, 866.738 213.500 C 867.193 204.751, 867.123 204.386, 864.219 200.419 C 860.417 195.223, 855.723 193, 848.559 193 C 841.502 193, 836.305 195.527, 829.957 202.044 C 824.739 207.401, 817.164 221.762, 814.420 231.500 C 813.129 236.083, 811.202 239.335, 806.262 245.270 C 800.484 252.211, 796.455 255.788, 795.495 254.829 C 794.728 254.061, 801.371 235.807, 811.396 211.136 C 823.331 181.767, 823.667 180.019, 818.102 176.282 C 814.296 173.726, 811.745 173.392, 810.216 175.250 M 265 177.279 C 261.613 178.971, 258.809 184.719, 259.593 188.363 C 259.931 189.938, 262.880 196.913, 266.144 203.863 C 269.409 210.813, 277.136 227.300, 283.316 240.500 C 293.616 262.498, 294.846 264.644, 298.060 266.229 C 304.603 269.454, 313 264.739, 313 257.839 C 313 256.249, 308.755 245.847, 303.567 234.724 C 298.379 223.601, 290.562 206.850, 286.196 197.500 C 279.872 183.956, 277.592 180.043, 274.981 178.250 C 271.287 175.714, 268.646 175.457, 265 177.279 M 265.571 182.571 C 263.080 185.063, 263.670 188.002, 268.887 199.103 C 271.575 204.821, 279.040 220.750, 285.476 234.500 C 291.911 248.250, 297.882 260.288, 298.743 261.250 C 300.664 263.396, 305.311 263.535, 307.003 261.497 C 307.689 260.670, 308.250 258.908, 308.250 257.582 C 308.250 255.438, 277.921 188.899, 274.369 183.250 C 272.685 180.572, 267.937 180.206, 265.571 182.571 M 325.827 193.702 C 310.486 226.013, 309.889 227.422, 310.503 229.868 C 310.839 231.207, 311.476 231.889, 311.927 231.395 C 312.376 230.903, 316.633 222.175, 321.387 212 C 332.763 187.649, 334.283 184.697, 335.670 184.258 C 336.317 184.053, 338.478 187.375, 340.508 191.693 C 361.863 237.123, 371 256.983, 371 257.966 C 371 258.611, 370.060 258.995, 368.912 258.820 C 367.235 258.563, 363.802 252.037, 351.452 225.623 C 342.997 207.541, 335.941 192.607, 335.770 192.437 C 335.600 192.267, 330.653 202.466, 324.776 215.101 C 315.233 235.622, 313.408 241, 315.988 241 C 316.413 241, 320.968 232.013, 326.110 221.030 C 331.252 210.046, 335.754 201.384, 336.114 201.780 C 336.473 202.176, 342.715 215.325, 349.985 231 C 357.255 246.675, 363.902 260.288, 364.756 261.250 C 367.489 264.328, 372.580 263.236, 374.097 259.245 C 374.903 257.125, 372.621 251.572, 358.435 221.132 C 349.303 201.534, 341.183 184.488, 340.392 183.250 C 339.344 181.610, 337.992 181, 335.405 181 L 331.857 181 325.827 193.702 M 397.741 182.750 C 396.879 183.713, 391.599 194.272, 386.008 206.216 C 378.659 221.916, 376.031 228.523, 376.521 230.067 C 376.894 231.241, 377.567 231.819, 378.016 231.351 C 378.466 230.883, 383.438 220.600, 389.066 208.500 C 399.571 185.912, 400.593 184, 402.154 184 C 404.921 184, 403.177 189.162, 393.455 209.741 C 379.313 239.678, 379.826 238.388, 381.292 240.345 C 382.307 241.700, 384.338 238.031, 394 217.390 C 409.382 184.531, 408.616 186.589, 406.605 183.520 C 404.633 180.510, 400.102 180.116, 397.741 182.750 M 268 186.838 C 268 187.849, 272.432 198.087, 277.848 209.588 C 290.065 235.530, 293.361 242.565, 297.602 251.750 C 300.696 258.452, 302.941 260.523, 304.455 258.073 C 304.770 257.564, 300.348 247.101, 294.628 234.823 C 274.251 191.081, 271.193 185, 269.570 185 C 268.706 185, 268 185.827, 268 186.838 M 848.862 202.531 C 847.411 203.309, 844.787 206.096, 843.030 208.723 C 840.185 212.980, 839.879 214.118, 840.227 219.173 C 840.506 223.234, 841.452 226.191, 843.558 229.584 C 845.176 232.191, 846.925 234.277, 847.445 234.220 C 848.951 234.054, 852.998 219.162, 853.618 211.500 C 854.326 202.770, 853.017 200.301, 848.862 202.531 M 580.529 205.400 C 573.516 212.837, 572.772 218.508, 577.558 228.063 C 581.582 236.095, 582.570 236.129, 584.986 228.321 C 587.724 219.473, 589.484 208.064, 588.633 204.674 C 587.692 200.926, 584.478 201.214, 580.529 205.400 M 686.885 208.255 C 683.341 211.297, 681.075 214.963, 676.532 225 C 672.233 234.498, 668.786 246.279, 669.648 248.526 C 670.609 251.029, 672.373 250.201, 677.690 244.750 C 683.893 238.391, 690.217 228.708, 692.967 221.358 C 697.343 209.662, 693.896 202.236, 686.885 208.255 M 565.018 239.412 C 564.400 242.388, 564.031 247.450, 564.197 250.662 C 564.481 256.133, 564.666 256.519, 567.132 256.805 C 569.157 257.040, 570.483 256.237, 572.882 253.327 C 576.511 248.924, 576.672 247.918, 574.113 245.602 C 573.074 244.662, 571.168 241.668, 569.876 238.947 C 568.585 236.226, 567.216 234, 566.835 234 C 566.454 234, 565.636 236.435, 565.018 239.412 M 830.138 239.667 C 828.893 245.865, 828.655 252.937, 829.607 255.418 C 830.656 258.153, 834.596 257.225, 837.896 253.465 C 839.603 251.521, 841 249.492, 841 248.957 C 841 248.421, 839.712 246.205, 838.138 244.032 C 836.564 241.859, 834.710 238.713, 834.017 237.041 C 833.324 235.368, 832.424 234, 832.017 234 C 831.609 234, 830.764 236.550, 830.138 239.667" stroke="none" fill="#5e453d" fill-rule="evenodd"/></svg>