<?xml version="1.0" standalone="no"?>
<!DOCTYPE svg PUBLIC "-//W3C//DTD SVG 20010904//EN"
 "http://www.w3.org/TR/2001/REC-SVG-20010904/DTD/svg10.dtd">
<svg version="1.0" xmlns="http://www.w3.org/2000/svg"
 width="207.000000pt" height="209.000000pt" viewBox="0 0 207.000000 209.000000"
 preserveAspectRatio="xMidYMid meet">

<g transform="translate(0.000000,209.000000) scale(0.100000,-0.100000)"
fill="#000000" stroke="none">
<path d="M330 1554 c-19 -8 -43 -23 -53 -32 -31 -28 -60 -94 -60 -137 0 -46
90 -255 257 -598 124 -255 151 -287 241 -287 66 0 124 26 154 69 11 16 57 103
101 195 44 91 84 166 88 166 4 0 48 -84 97 -187 84 -174 93 -188 135 -215 40
-26 52 -29 107 -26 80 5 106 24 160 118 41 72 247 507 305 645 48 114 39 193
-29 257 -62 58 -173 56 -235 -5 -17 -18 -70 -112 -121 -216 l-90 -186 -84 175
c-91 189 -118 232 -164 256 -41 21 -119 20 -164 -2 -47 -22 -71 -60 -165 -257
-40 -87 -78 -157 -82 -157 -5 0 -49 82 -97 183 -93 194 -119 227 -189 247 -49
13 -70 12 -112 -6z m143 -54 c29 -23 128 -213 260 -500 108 -234 128 -285 130
-332 4 -115 -163 -172 -245 -82 -17 20 -285 590 -331 706 -15 36 -27 85 -27
108 0 36 6 48 39 81 35 36 43 39 93 39 40 0 62 -6 81 -20z m658 5 c24 -13 44
-46 103 -168 96 -197 285 -613 292 -643 9 -36 -14 -90 -52 -124 -28 -24 -44
-30 -82 -30 -85 0 -102 19 -197 214 -46 95 -96 200 -111 232 l-26 59 -74 -153
c-47 -99 -77 -151 -85 -147 -6 4 -9 19 -6 35 8 38 154 340 165 340 5 0 62
-113 127 -251 74 -156 128 -258 143 -270 27 -21 82 -25 113 -9 10 6 26 24 34
41 14 25 14 36 4 67 -21 64 -136 319 -246 543 -79 163 -111 220 -130 228 -32
15 -85 14 -106 -1 -9 -7 -61 -106 -116 -219 -98 -204 -121 -241 -121 -199 0
56 175 416 218 450 31 25 110 27 153 5z m655 0 c41 -17 80 -90 71 -135 -7 -34
-104 -253 -207 -467 -54 -112 -84 -163 -90 -157 -14 14 1 53 128 337 146 325
137 298 117 340 -29 61 -101 77 -153 35 -8 -7 -59 -104 -113 -215 -91 -190
-119 -232 -119 -183 0 47 179 410 217 440 31 24 98 27 149 5z m-682 -87 c18
-28 244 -510 297 -634 21 -50 39 -103 39 -117 0 -42 -57 -62 -90 -32 -9 9 -77
144 -150 300 -74 157 -137 285 -142 285 -5 0 -49 -83 -97 -184 -90 -187 -119
-231 -108 -163 7 43 188 439 201 441 5 1 76 -138 158 -309 139 -290 178 -359
191 -339 3 5 -53 134 -123 286 -183 396 -210 450 -223 446 -13 -4 -76 -126
-175 -338 -52 -112 -65 -132 -73 -117 -14 24 -7 41 109 289 l97 208 37 0 c28
0 41 -6 52 -22z m656 2 c11 -11 20 -25 20 -31 0 -15 -197 -441 -230 -498 -25
-43 -47 -53 -43 -18 2 10 48 114 102 231 101 217 130 291 117 303 -11 12 -33
-27 -137 -250 -93 -196 -129 -253 -121 -186 5 43 178 416 210 452 20 23 57 22
82 -3z"/>
<path d="M333 1455 c-32 -32 -35 -40 -31 -78 3 -26 57 -154 138 -327 219 -471
219 -470 286 -470 35 0 89 38 99 69 8 27 -22 102 -172 426 -157 339 -174 370
-216 396 -45 27 -64 24 -104 -16z m112 -39 c45 -69 335 -720 335 -752 0 -44
-62 -61 -93 -26 -25 27 -337 697 -344 735 -10 62 68 95 102 43z"/>
<path d="M386 1391 c-8 -12 25 -87 183 -426 126 -269 153 -317 167 -302 10 10
-18 78 -134 327 -173 372 -202 425 -216 401z"/>
</g>
</svg>
